HIERARCHY
ROOT Hips
{
    OFFSET 0.000000 0.000000 0.000000
    CHANNELS 6 Xposition Yposition Zposition Zrotation Xrotation Yrotation
        JOINT Chest
        {
            OFFSET -0.000000 32.910728 -0.000000
            CHANNELS 3 Zrotation Xrotation Yrotation
            JOINT Neck
            {
                OFFSET -0.000000 24.872103 0.000000
                CHANNELS 3 Zrotation Xrotation Yrotation
                JOINT Head
                {
                    OFFSET -0.000000 10.694444 0.000000
                    CHANNELS 3 Zrotation Xrotation Yrotation
                    End Site
                    {
                        OFFSET -0.000000 16.527781 0.000000
                    }
                }
            }
            JOINT LeftCollar
            {
                OFFSET -0.000000 24.872103 0.000000
                CHANNELS 3 Zrotation Xrotation Yrotation
                JOINT LeftShoulder
                {
                    OFFSET 20.500000 -0.000000 0.000000
                    CHANNELS 3 Zrotation Xrotation Yrotation
                    JOINT LeftElbow
                    {
                        OFFSET 20.261999 0.000000 0.000000
                        CHANNELS 3 Zrotation Xrotation Yrotation
                        JOINT LeftWrist
                        {
                            OFFSET 25.372869 0.000000 0.000000
                            CHANNELS 3 Zrotation Xrotation Yrotation
                            End Site
                            {
                                OFFSET 0.000000 -14.583331 0.000000
                            }
                        }
                    }
                }
            }
            JOINT RightCollar
            {
                OFFSET -0.000000 24.872103 0.000000
                CHANNELS 3 Zrotation Xrotation Yrotation
                JOINT RightShoulder
                {
                    OFFSET -20.500000 0.000000 0.000000
                    CHANNELS 3 Zrotation Xrotation Yrotation
                    JOINT RightElbow
                    {
                        OFFSET -20.261999 0.000000 0.000000
                        CHANNELS 3 Zrotation Xrotation Yrotation
                        JOINT RightWrist
                        {
                            OFFSET -25.372869 0.000000 0.000000
                            CHANNELS 3 Zrotation Xrotation Yrotation
                            End Site
                            {
                                OFFSET -0.000000 -14.583331 0.000000
                            }
                        }
                    }
                }
            }
        }
    JOINT LeftHip
    {
        OFFSET 11.666668 0.000000 0.000000
        CHANNELS 3 Zrotation Xrotation Yrotation
        JOINT LeftKnee
        {
            OFFSET -0.000000 -37.459236 0.000000
            CHANNELS 3 Zrotation Xrotation Yrotation
            JOINT LeftAnkle
            {
                OFFSET -0.000000 -38.972313 0.000000
                CHANNELS 3 Zrotation Xrotation Yrotation
                End Site
                {
                    OFFSET -0.000000 -4.861111 16.527781
                }
            }
        }
    }
    JOINT RightHip
    {
        OFFSET -11.666668 0.000000 0.000000
        CHANNELS 3 Zrotation Xrotation Yrotation
        JOINT RightKnee
        {
            OFFSET -0.000000 -37.459236 0.000000
            CHANNELS 3 Zrotation Xrotation Yrotation
            JOINT RightAnkle
            {
                OFFSET -0.000000 -38.972313 0.000000
                CHANNELS 3 Zrotation Xrotation Yrotation
                End Site
                {
                    OFFSET -0.000000 -4.861111 16.527781
                }
            }
        }
    }
}
MOTION
Frames:    6
Frame Time:    0.010000
-19.738937    85.952797    -3.579589    -2.386548    -2.404029    -62.328526    -2.717976    16.683796    0.033595    0.559716    -8.693002    19.333704    -7.188760    -11.354659    18.486256    -27.961195    -1.855408    7.554405    27.570345    69.933983    -86.398369    51.798603    -10.349630    -21.169277    72.968330    27.363607    111.477669    30.287182    -4.902092    -17.904135    17.117884    55.672913    30.621935    -13.149218    -9.364029    70.567520    -94.831940    0.216766    19.227945    0.872010    -16.129730    4.938712    4.696639    27.519594    -9.096087    -7.562299    4.745343    8.489406    -2.100311    2.748176    -10.257793    0.551638    19.692099    -6.212193    -0.581057    -16.571203    -3.958559    
-19.699541    85.949013    -3.379308    -2.343735    -2.374584    -62.275742    -2.846733    16.472527    0.335230    0.384405    -8.446238    19.267096    -9.861014    -11.099069    18.278339    -28.050444    -1.907254    7.680163    29.740465    70.067062    -88.331894    52.115967    -10.313279    -20.643892    72.599670    27.074129    111.986290    30.459896    -4.928445    -18.005772    16.760027    55.691837    30.548634    -13.040437    -9.246740    70.837280    -94.972092    0.406863    19.070921    0.677753    -16.067274    4.679226    4.658113    27.352669    -8.684952    -7.464934    4.845680    8.289464    -2.268179    2.812675    -10.351688    0.618441    19.596384    -6.176630    -0.467233    -16.552181    -3.924337    
-19.690521    85.962296    -3.234311    -2.280417    -2.402814    -62.160694    -3.065850    16.397312    0.283055    0.532813    -8.343700    19.175354    -9.896605    -10.934699    18.187223    -28.019247    -1.874852    7.573467    29.285055    69.980759    -87.835678    51.812912    -10.170590    -20.785990    72.493202    27.227526    112.335609    30.437254    -4.957138    -18.048498    17.139889    55.779121    30.467646    -12.948469    -9.166788    70.664284    -95.894775    0.655356    18.966078    0.495771    -16.048712    4.595286    4.660460    27.298080    -8.742783    -7.383345    4.810114    8.311962    -2.335915    2.915039    -10.275557    0.567851    19.403368    -6.411723    -0.358466    -16.474541    -3.861833    
-19.663399    85.963173    -3.119664    -2.165684    -2.339826    -62.049896    -3.141216    16.438080    0.238233    0.412129    -7.144576    19.470478    -10.552344    -12.764239    18.259319    -27.989660    -1.870915    7.598265    28.883137    69.939903    -87.515839    51.952599    -10.170845    -20.698183    72.799591    27.187471    112.179321    30.382397    -4.897832    -17.866266    16.900547    55.911018    30.770449    -13.043415    -9.287339    70.618073    -95.568146    0.661000    18.982197    0.400343    -16.157249    4.349238    4.574982    27.300879    -8.610594    -7.299779    4.761961    8.284539    -2.378274    2.922530    -9.948077    0.676773    19.103300    -7.933597    0.095027    -16.281477    -2.726300    
-19.595783    85.971535    -2.957186    -1.948526    -2.334193    -61.953972    -3.296362    16.352865    0.336169    0.193633    -8.452754    19.224987    -9.619493    -11.153339    18.269926    -28.040855    -1.926752    7.844514    29.390856    69.736771    -88.008270    52.135250    -10.171640    -20.533995    72.571938    26.668859    111.732048    30.325352    -4.843578    -17.763395    16.528172    56.078785    31.205383    -13.385798    -9.664664    70.485992    -94.577522    0.674042    19.394669    0.107335    -16.279310    3.799924    4.409431    27.206568    -8.209030    -7.248397    4.788023    8.363944    -2.633255    2.763820    -10.076779    0.729506    19.126749    -7.708135    0.109093    -16.301918    -2.902177    
-19.595783    85.971535    -2.957186    -1.948547    -2.334199    -61.953972    -3.292526    16.350569    0.336125    0.252473    -8.420930    19.171272    -9.664406    -11.145649    18.207676    -28.029209    -1.925160    7.731329    29.434223    69.813690    -88.027260    52.106613    -10.124471    -20.594854    72.561279    26.692671    111.802208    30.334652    -4.882543    -17.853678    16.532003    56.058964    31.238213    -13.539389    -9.703359    70.408295    -94.603958    0.682966    19.238655    0.107336    -16.279272    3.799889    4.409415    27.206535    -8.208986    -7.248403    4.788040    8.363924    -2.633255    2.763828    -10.076788    0.729511    19.126781    -7.708069    0.109052    -16.301931    -2.902240    
